<svg xmlns="http://www.w3.org/2000/svg" version="1.1" xmlns:xlink="http://www.w3.org/1999/xlink" xmlns:svgjs="http://svgjs.dev/svgjs" width="1500" height="1161" viewBox="0 0 1500 1161"><g transform="matrix(1,0,0,1,-1.1675310786949922,0.47004048582994074)"><svg viewBox="0 0 319 247" data-background-color="#ffffff" preserveAspectRatio="xMidYMid meet" height="1161" width="1500" xmlns="http://www.w3.org/2000/svg" xmlns:xlink="http://www.w3.org/1999/xlink"><g id="tight-bounds" transform="matrix(1,0,0,1,0.24829494273581076,-0.09999999999999432)"><svg viewBox="0 0 318.5034101145284 247.2" height="247.2" width="318.5034101145284"><g><svg viewBox="0 0 318.5034101145284 247.2" height="247.2" width="318.5034101145284"><g><svg viewBox="0 0 318.5034101145284 247.2" height="247.2" width="318.5034101145284"><g id="textblocktransform"><svg viewBox="0 0 318.5034101145284 247.2" height="247.2" width="318.5034101145284" id="textblock"><g><svg viewBox="0 0 318.5034101145284 247.2" height="247.2" width="318.5034101145284"><g transform="matrix(1,0,0,1,0,0)"><svg width="318.5034101145284" viewBox="1.1499999999999995 -43.43 136.89 102.68" height="247.2" data-palette-color="#2a160c"><svg></svg><svg></svg><g class="wordmark-text-0" data-fill-palette-color="primary" id="text-0"><path d="M7.45 6.13h-4.91v-3.79h1.73c0.72 0 1.343-0.037 1.87-0.11 0.527-0.073 0.847-0.23 0.96-0.47v0c0.2-0.26 0.28-0.673 0.24-1.24-0.04-0.56-0.11-1.163-0.21-1.81v0l-5.98-35.33h4.86l2.63 19.04 1.08 9.91h0.44l0.95-9.91 2.39-19.04h4.83l-6.07 37.33c-0.2 1.32-0.447 2.377-0.74 3.17-0.293 0.8-0.743 1.373-1.35 1.72-0.613 0.353-1.52 0.53-2.72 0.53zM28.22 0.32v0c-2.213 0-3.807-0.86-4.78-2.58-0.98-1.713-1.477-4.093-1.49-7.14v0-3.56c0-1.613 0.277-2.953 0.83-4.02 0.553-1.067 1.333-1.957 2.34-2.67 1.013-0.72 2.203-1.367 3.57-1.94 1.367-0.58 2.863-1.197 4.49-1.85v0-2.83c0-1.56-0.05-2.827-0.15-3.8-0.093-0.967-0.34-1.677-0.74-2.13-0.4-0.46-1.04-0.69-1.92-0.69v0c-0.86 0-1.507 0.23-1.94 0.69-0.433 0.453-0.713 1.17-0.84 2.15-0.133 0.973-0.2 2.24-0.2 3.8v0 1.27h-4.98v-1.05c0-1.56 0.1-3.01 0.3-4.35 0.193-1.347 0.567-2.517 1.12-3.51 0.553-0.993 1.363-1.77 2.43-2.33 1.067-0.56 2.47-0.84 4.21-0.84v0c1.66 0 2.997 0.263 4.01 0.79 1.02 0.533 1.803 1.31 2.35 2.33 0.547 1.027 0.917 2.293 1.11 3.8 0.193 1.507 0.29 3.243 0.29 5.21v0 24.93h-5.03v-3.17c-0.147 0.487-0.43 1.003-0.85 1.55-0.427 0.54-0.98 1-1.66 1.38-0.687 0.373-1.51 0.56-2.47 0.56zM29.64-3.74v0c0.88 0 1.637-0.28 2.27-0.84 0.633-0.56 1.057-1.117 1.27-1.67v0-13.94c-1.253 0.553-2.283 1.053-3.09 1.5-0.807 0.447-1.433 0.913-1.88 1.4-0.447 0.493-0.76 1.08-0.94 1.76-0.18 0.687-0.27 1.55-0.27 2.59v0 3.39c0 2.067 0.18 3.553 0.54 4.46 0.36 0.9 1.06 1.35 2.1 1.35zM51.61 0.49v0c-2.6 0-4.577-0.82-5.93-2.46-1.353-1.633-2.03-4.347-2.03-8.14v0-2.76h4.86v2.74c0 2.047 0.223 3.617 0.67 4.71 0.447 1.093 1.183 1.64 2.21 1.64v0c1.027 0 1.78-0.337 2.26-1.01 0.48-0.667 0.72-1.86 0.72-3.58v0c0-0.867-0.13-1.727-0.39-2.58-0.26-0.853-0.66-1.7-1.2-2.54-0.533-0.84-1.223-1.657-2.07-2.45v0l-2.59-2.47c-1.547-1.48-2.727-3.053-3.54-4.72-0.813-1.667-1.22-3.437-1.22-5.31v0c0-2.967 0.7-5.143 2.1-6.53 1.4-1.393 3.33-2.09 5.79-2.09v0c1.64 0 3.023 0.357 4.15 1.07 1.12 0.72 1.963 1.91 2.53 3.57 0.573 1.66 0.86 3.923 0.86 6.79v0 1.75h-4.76v-2.54c0-2.047-0.2-3.617-0.6-4.71-0.4-1.087-1.113-1.63-2.14-1.63v0c-0.993 0-1.737 0.287-2.23 0.86-0.493 0.58-0.767 1.633-0.82 3.16v0c-0.013 0.787 0.09 1.577 0.31 2.37 0.22 0.8 0.58 1.59 1.08 2.37 0.507 0.78 1.16 1.547 1.96 2.3v0l2.63 2.46c1.713 1.58 3.003 3.277 3.87 5.09 0.873 1.813 1.31 3.73 1.31 5.75v0c0 2.767-0.63 4.94-1.89 6.52-1.26 1.58-3.227 2.37-5.9 2.37zM69.38 0h-5v-43.43h5v10.69c0.327-1.14 1.017-2.15 2.07-3.03 1.047-0.873 2.303-1.31 3.77-1.31v0c1.84 0 3.28 0.65 4.32 1.95 1.04 1.3 1.56 3.277 1.56 5.93v0 29.2h-5v-28.78c0-1.5-0.273-2.54-0.82-3.12-0.547-0.573-1.273-0.86-2.18-0.86v0c-0.673 0-1.293 0.157-1.86 0.47-0.567 0.32-1.017 0.817-1.35 1.49-0.34 0.673-0.51 1.55-0.51 2.63v0zM93.09 6.69h-5v-43.31h5v3.05c0.487-1.207 1.207-2.07 2.16-2.59 0.953-0.52 1.927-0.78 2.92-0.78v0c1.76 0 3.087 0.517 3.98 1.55 0.893 1.033 1.49 2.437 1.79 4.21 0.3 1.773 0.45 3.783 0.45 6.03v0 13.26c0 2.313-0.173 4.4-0.52 6.26-0.353 1.867-1.03 3.343-2.03 4.43-1 1.093-2.493 1.64-4.48 1.64v0c-0.94 0-1.79-0.29-2.55-0.87-0.753-0.573-1.327-1.243-1.72-2.01v0zM96.39-3.76v0c1.2-0.013 1.997-0.62 2.39-1.82 0.393-1.193 0.59-3.07 0.59-5.63v0-14.82c0-1.347-0.06-2.533-0.18-3.56-0.113-1.027-0.373-1.827-0.78-2.4-0.407-0.58-1.05-0.87-1.93-0.87v0c-0.7 0-1.3 0.163-1.8 0.49-0.507 0.327-0.897 0.977-1.17 1.95-0.28 0.973-0.42 2.437-0.42 4.39v0 15.02c0 2.427 0.207 4.24 0.62 5.44 0.42 1.207 1.313 1.81 2.68 1.81zM116.46 0.32v0c-2.22 0-3.817-0.86-4.79-2.58-0.973-1.713-1.47-4.093-1.49-7.14v0-3.56c0-1.613 0.277-2.953 0.83-4.02 0.553-1.067 1.333-1.957 2.34-2.67 1.013-0.72 2.203-1.367 3.57-1.94 1.367-0.58 2.863-1.197 4.49-1.85v0-2.83c0-1.56-0.05-2.827-0.15-3.8-0.093-0.967-0.34-1.677-0.74-2.13-0.4-0.46-1.04-0.69-1.92-0.69v0c-0.86 0-1.507 0.23-1.94 0.69-0.427 0.453-0.707 1.17-0.84 2.15-0.127 0.973-0.19 2.24-0.19 3.8v0 1.27h-4.99v-1.05c0-1.56 0.1-3.01 0.3-4.35 0.193-1.347 0.567-2.517 1.12-3.51 0.553-0.993 1.363-1.77 2.43-2.33 1.067-0.56 2.47-0.84 4.21-0.84v0c1.66 0 3 0.263 4.02 0.79 1.013 0.533 1.793 1.31 2.34 2.33 0.547 1.027 0.917 2.293 1.11 3.8 0.193 1.507 0.29 3.243 0.29 5.21v0 24.93h-5.02v-3.17c-0.147 0.487-0.433 1.003-0.86 1.55-0.42 0.54-0.973 1-1.66 1.38-0.68 0.373-1.5 0.56-2.46 0.56zM117.87-3.74v0c0.88 0 1.637-0.28 2.27-0.84 0.633-0.56 1.057-1.117 1.27-1.67v0-13.94c-1.253 0.553-2.283 1.053-3.09 1.5-0.807 0.447-1.433 0.913-1.88 1.4-0.447 0.493-0.76 1.08-0.94 1.76-0.18 0.687-0.27 1.55-0.27 2.59v0 3.39c0 2.067 0.18 3.553 0.54 4.46 0.36 0.9 1.06 1.35 2.1 1.35zM138.04 0h-5.01v-43.43h5.01z" fill="#2a160c" fill-rule="nonzero" stroke="none" stroke-width="1" stroke-linecap="butt" stroke-linejoin="miter" stroke-miterlimit="10" stroke-dasharray="" stroke-dashoffset="0" font-family="none" font-weight="none" font-size="none" text-anchor="none" style="mix-blend-mode: normal" data-fill-palette-color="primary" opacity="1"></path><path d="M10.4 53.61v0c-2.607 0-4.583-0.82-5.93-2.46-1.353-1.633-2.03-4.347-2.03-8.14v0-2.76h4.86v2.74c0 2.047 0.223 3.617 0.67 4.71 0.447 1.093 1.183 1.64 2.21 1.64v0c1.027 0 1.78-0.337 2.26-1.01 0.48-0.667 0.72-1.86 0.72-3.58v0c0-0.867-0.13-1.727-0.39-2.58-0.26-0.853-0.66-1.7-1.2-2.54-0.533-0.84-1.223-1.657-2.07-2.45v0l-2.59-2.47c-1.547-1.48-2.727-3.053-3.54-4.72-0.813-1.667-1.22-3.437-1.22-5.31v0c0-2.967 0.7-5.143 2.1-6.53 1.4-1.393 3.327-2.09 5.78-2.09v0c1.647 0 3.03 0.357 4.15 1.07 1.127 0.72 1.973 1.91 2.54 3.57 0.573 1.66 0.86 3.923 0.86 6.79v0 1.75h-4.76v-2.54c0-2.047-0.2-3.617-0.6-4.71-0.4-1.087-1.113-1.63-2.14-1.63v0c-0.993 0-1.737 0.287-2.23 0.86-0.5 0.58-0.773 1.633-0.82 3.16v0c-0.013 0.787 0.09 1.577 0.31 2.37 0.22 0.8 0.58 1.59 1.08 2.37 0.507 0.78 1.16 1.547 1.96 2.3v0l2.63 2.46c1.713 1.58 3.003 3.277 3.87 5.09 0.873 1.813 1.31 3.73 1.31 5.75v0c0 2.767-0.63 4.94-1.89 6.52-1.267 1.58-3.233 2.37-5.9 2.37zM29.05 53.61v0c-1.087 0-2.093-0.27-3.02-0.81-0.933-0.533-1.683-1.4-2.25-2.6-0.573-1.193-0.86-2.76-0.86-4.7v0-29h5.01v28.44c0 1.42 0.253 2.493 0.76 3.22 0.5 0.733 1.297 1.1 2.39 1.1v0c1.207 0 2.097-0.417 2.67-1.25 0.58-0.84 0.87-1.903 0.87-3.19v0-28.32h5.03v36.62h-5.03v-3.74c-0.36 1.14-1.003 2.13-1.93 2.97-0.927 0.84-2.14 1.26-3.64 1.26zM51.73 53.12h-5.03v-36.62h5.03v4.08c0.427-1.42 1.163-2.527 2.21-3.32 1.053-0.8 2.393-1.2 4.02-1.2v0c0.033 0 0.053 0.217 0.06 0.65 0.007 0.427 0.01 0.917 0.01 1.47 0 0.553 0 1.047 0 1.48 0 0.433 0 0.65 0 0.65v0c-0.78 0-1.56 0.093-2.34 0.28-0.78 0.187-1.513 0.503-2.2 0.95-0.68 0.447-1.267 1.053-1.76 1.82v0zM66.24 59.25h-4.91v-3.79h1.73c0.72 0 1.343-0.037 1.87-0.11 0.527-0.073 0.847-0.23 0.96-0.47v0c0.2-0.26 0.28-0.673 0.24-1.24-0.047-0.56-0.117-1.163-0.21-1.81v0l-5.98-35.33h4.85l2.64 19.04 1.08 9.91h0.44l0.95-9.91 2.39-19.04h4.83l-6.08 37.33c-0.193 1.32-0.437 2.377-0.73 3.17-0.293 0.8-0.743 1.373-1.35 1.72-0.613 0.353-1.52 0.53-2.72 0.53zM87.01 53.44v0c-2.213 0-3.807-0.86-4.78-2.58-0.98-1.713-1.477-4.093-1.49-7.14v0-3.56c0-1.613 0.277-2.953 0.83-4.02 0.553-1.067 1.333-1.957 2.34-2.67 1.007-0.72 2.197-1.367 3.57-1.94 1.367-0.58 2.863-1.197 4.49-1.85v0-2.83c0-1.56-0.05-2.827-0.15-3.8-0.1-0.967-0.347-1.677-0.74-2.13-0.4-0.46-1.04-0.69-1.92-0.69v0c-0.86 0-1.507 0.23-1.94 0.69-0.433 0.453-0.713 1.17-0.84 2.15-0.133 0.973-0.2 2.24-0.2 3.8v0 1.27h-4.98v-1.05c0-1.56 0.097-3.01 0.29-4.35 0.2-1.347 0.577-2.517 1.13-3.51 0.553-0.993 1.363-1.77 2.43-2.33 1.067-0.56 2.47-0.84 4.21-0.84v0c1.66 0 2.997 0.263 4.01 0.79 1.02 0.533 1.803 1.31 2.35 2.33 0.547 1.027 0.917 2.293 1.11 3.8 0.193 1.507 0.29 3.243 0.29 5.21v0 24.93h-5.03v-3.17c-0.147 0.487-0.43 1.003-0.85 1.55-0.427 0.54-0.98 1-1.66 1.38-0.687 0.373-1.51 0.56-2.47 0.56zM88.43 49.38v0c0.88 0 1.637-0.28 2.27-0.84 0.633-0.56 1.057-1.117 1.27-1.67v0-13.94c-1.253 0.553-2.283 1.053-3.09 1.5-0.807 0.447-1.433 0.913-1.88 1.4-0.447 0.493-0.76 1.08-0.94 1.76-0.18 0.687-0.27 1.55-0.27 2.59v0 3.39c0 2.067 0.18 3.553 0.54 4.46 0.36 0.9 1.06 1.35 2.1 1.35z" fill="#99592a" fill-rule="nonzero" stroke="none" stroke-width="1" stroke-linecap="butt" stroke-linejoin="miter" stroke-miterlimit="10" stroke-dasharray="" stroke-dashoffset="0" font-family="none" font-weight="none" font-size="none" text-anchor="none" style="mix-blend-mode: normal" data-fill-palette-color="secondary" opacity="1"></path></g></svg></g></svg></g></svg></g></svg></g></svg></g><defs></defs></svg><rect width="318.5034101145284" height="247.2" fill="none" stroke="none" visibility="hidden"></rect></g></svg></g></svg>